<?xml version="1.0" encoding="utf-8"?>
<!-- Generator: Adobe Illustrator 26.5.0, SVG Export Plug-In . SVG Version: 6.00 Build 0)  -->
<svg version="1.1" id="Layer_1" xmlns="http://www.w3.org/2000/svg" xmlns:xlink="http://www.w3.org/1999/xlink" x="0px" y="0px"
	 viewBox="0 0 672.1 669.2" style="enable-background:new 0 0 672.1 669.2;" xml:space="preserve">
<style type="text/css">
	.st0{fill:#FAA41A;}
	.st1{fill:#3F3D56;}
	.st2{fill:#FFFFFF;}
	.st3{fill:#FFB6B6;}
	.st4{fill:#2F2E41;}
	.st5{fill:#1D1D1D;}
	.st6{fill:#FFFFFF;stroke:#1D1D1D;stroke-width:3;stroke-miterlimit:50;}
</style>
<g>
	<path class="st0" d="M244.3,88.9c-1.7-2.8-8.9,0.2-10.2-2.3c-1.3-2.5,5.4-6.4,9.2-15.2c0.7-1.6,5-11.6,1.8-14.7
		c-6.1-5.9-34,18.3-43.7,10.4c-2.1-1.7-3.6-5.2-10.1-10.8c-2.6-2.2-4.1-3.3-5.6-2.9c-2.1,0.5-2.3,3.4-4.6,9
		c-3.4,8.4-5.5,7.9-7.5,14.7c-1.5,5-1.1,7.9-2.9,8.5c-2.5,0.8-4.8-4.5-7.9-4c-3.2,0.5-5.1,6.7-5.8,11.3c-1.1,8.7,2,14.4,3.8,20.4
		c1.9,6.5,3.1,16.5-1.4,30.6l-43.9,123.6c9.7-25.4,37.7-94.9,49.5-120.8c3.4-7.5,7.2-15,14.9-18c7.4-2.9,17.6-1.2,30.6-4.3
		c1.5-0.4,5.7-1.4,6.3-3.9c0.4-2-2-3.2-1.7-5.1c0.5-2.6,5.4-2.6,11.4-5.6c4.2-2.1,6.9-4.6,9.1-6.7
		C236.4,102.4,246.5,92.7,244.3,88.9C244.3,88.9,244.3,88.9,244.3,88.9z"/>
	<path class="st0" d="M71.7,154c-1.9,0-2.5,4.4-4.1,4.3c-1.6-0.1-1.6-4.5-4.8-8.9c-0.6-0.8-4.3-5.8-6.7-5.1
		c-4.6,1.3-0.8,22-7.5,24.5c-1.5,0.5-3.6,0.3-8.2,1.8c-1.8,0.6-2.8,1.1-3,1.9c-0.4,1.2,1,2.1,3.1,4.9c3.2,4.1,2.3,5,5,7.9
		c2,2.2,3.6,2.8,3.3,3.9c-0.3,1.4-3.6,1-4.3,2.7c-0.7,1.7,1.8,4.4,3.9,6.1c3.9,3.1,7.7,3.2,11.1,4c3.8,0.9,9,3.3,14.6,9.5l48,57.2
		c-9.7-12.1-35.7-45.9-45-59.2c-2.7-3.8-5.3-7.9-4.6-12.5c0.7-4.5,4.5-9,6.7-16.3c0.3-0.9,0.9-3.2-0.1-4.2c-0.9-0.8-2.2,0.1-3-0.7
		c-1.1-1,0.3-3.4,0.5-7.2c0.2-2.7-0.3-4.7-0.7-6.4C76,161.8,74.1,154,71.7,154C71.7,154,71.7,154,71.7,154z"/>
	<path class="st0" d="M108.7,162.3l-1.1-10l0.5-0.8c2.4-3.5,3.6-6.9,3.6-10.2c0-0.5,0-1,0-1.6c-0.1-2.1-0.2-4.7,1.1-7.7
		c0.8-1.7,2.9-5.6,6.1-5.1c0.9,0.1,1.5,0.5,2,1c0.1-0.1,0.1-0.2,0.2-0.4c1-1.5,1.8-2.2,2.5-2.8c0.6-0.5,1.2-1,2.1-2.2
		c0.4-0.5,0.7-1,1-1.3c0.8-1.2,1.9-2.5,3.8-2.5c2,0.1,3.1,1.8,3.8,2.9c1.3,2,1.8,3.4,2.2,4.4c0.1,0.3,0.3,0.7,0.4,0.9
		c0.7,1,6,0.1,8-0.3c4.5-0.8,8.4-1.4,10,1.4c1.2,2,0.3,4.7-2.6,8.2c-0.9,1.1-1.9,1.9-2.7,2.6c0.7,0.4,1.3,1.1,1.6,2.1l0,0
		c0.6,2.4-1.5,4.8-6.2,7.2c-1.2,0.6-2.7,1.4-4.9,1.8c-1,0.2-2,0.2-2.8,0.2c0,0.5-0.1,1-0.4,1.5c-0.8,1.5-2.5,2.2-5.1,2.1
		c-2.9-0.1-5.2-0.7-7.3-1.2c-1.8-0.4-3.4-0.8-4.6-0.7c-2.3,0.2-4,2-6.1,4.4L108.7,162.3L108.7,162.3
		C108.7,162.3,108.7,162.3,108.7,162.3z"/>
	<path class="st0" d="M113.9,102.9l-9.4,3.6l-0.9-0.3c-4-1.4-7.6-1.7-10.7-0.9c-0.5,0.1-1,0.3-1.5,0.4c-2,0.6-4.5,1.4-7.7,0.9
		c-1.8-0.3-6.1-1.4-6.5-4.6c-0.1-0.9,0.1-1.6,0.4-2.2c-0.1,0-0.3-0.1-0.4-0.1c-1.7-0.6-2.6-1.2-3.3-1.8c-0.6-0.4-1.2-0.9-2.6-1.5
		c-0.6-0.3-1.1-0.5-1.6-0.6c-1.3-0.5-2.9-1.2-3.4-3.1c-0.4-2,0.9-3.4,1.8-4.4c1.6-1.7,2.8-2.6,3.7-3.2c0.3-0.2,0.6-0.5,0.7-0.6
		c0.8-0.9-1.5-5.8-2.3-7.7c-1.9-4.2-3.5-7.8-1.1-10.1c1.7-1.6,4.5-1.5,8.6,0.5c1.3,0.6,2.3,1.3,3.2,2c0.2-0.8,0.7-1.6,1.6-2.1l0,0
		c2.2-1.2,5.1,0.2,8.5,4.1c0.9,1,2,2.3,3,4.3c0.4,1,0.7,1.9,0.9,2.6c0.5-0.1,1-0.1,1.5,0c1.7,0.4,2.8,1.9,3.3,4.4
		c0.6,2.8,0.6,5.2,0.7,7.3c0.1,1.9,0.1,3.5,0.5,4.6c0.8,2.1,3,3.4,5.8,4.8L113.9,102.9L113.9,102.9
		C113.9,102.9,113.9,102.9,113.9,102.9z"/>
	<path class="st0" d="M108.7,73.5l-1.1-10l0.5-0.8c2.4-3.5,3.6-6.9,3.6-10.2c0-0.5,0-1,0-1.6c-0.1-2.1-0.2-4.7,1.1-7.7
		c0.8-1.7,2.9-5.6,6.1-5.1c0.9,0.1,1.5,0.5,2,1c0.1-0.1,0.1-0.2,0.2-0.4c1-1.5,1.8-2.2,2.5-2.8c0.6-0.5,1.2-1,2.1-2.2
		c0.4-0.5,0.7-1,1-1.3c0.8-1.2,1.9-2.5,3.8-2.5c2,0.1,3.1,1.8,3.8,2.9c1.3,2,1.8,3.4,2.2,4.4c0.1,0.3,0.3,0.7,0.4,0.9
		c0.7,1,6,0.1,8-0.3c4.5-0.8,8.4-1.4,10,1.4c1.2,2,0.3,4.7-2.6,8.2c-0.9,1.1-1.9,1.9-2.7,2.6c0.7,0.4,1.3,1.1,1.6,2.1l0,0
		c0.6,2.4-1.5,4.8-6.2,7.2c-1.2,0.6-2.7,1.4-4.9,1.8c-1,0.2-2,0.2-2.8,0.2c0,0.5-0.1,1-0.4,1.5c-0.8,1.5-2.5,2.2-5.1,2.1
		c-2.9-0.1-5.2-0.7-7.3-1.2c-1.8-0.4-3.4-0.8-4.6-0.7c-2.3,0.2-4,2-6.1,4.4L108.7,73.5L108.7,73.5C108.7,73.5,108.7,73.5,108.7,73.5
		z"/>
	<path class="st0" d="M118.9,267.3l-2.1-1.3l-0.5-2.4l0.5,2.4l-2.4,0.3c0-0.2-0.2-0.7-0.4-1.6c-1.1-4.5-4.4-18-7.2-39.4
		c-1.9-14.9-3-30.3-3.3-45.6c-0.2-15.4,0.5-27,1.1-36.4c0.4-7.1,1-13.8,1.5-20.3c1.4-17.5,2.7-34,1.7-52.3
		c-0.2-4.1-0.7-12.6-5.6-21.6c-2.9-5.2-6.8-9.9-11.8-13.8l3.1-3.9c5.5,4.3,9.8,9.5,13,15.3c5.5,10,6,19.3,6.2,23.7
		c1,18.6-0.3,35.3-1.7,53c-0.5,6.5-1.1,13.2-1.5,20.2c-0.6,9.3-1.3,20.8-1.1,36c0.2,15.2,1.3,30.3,3.2,45.1
		c2.7,21.1,6,34.5,7.1,38.9C119.4,265.9,119.5,266.3,118.9,267.3C118.9,267.3,118.9,267.3,118.9,267.3z"/>
	<path class="st0" d="M81.4,43c-0.2,0-0.4,0-0.6,0c-4.2-0.2-8.1-2.7-11.6-7.5c-1.6-2.2-2.5-4.8-4.1-9.8c-0.3-0.8-1.5-4.7-2.3-10.2
		c-0.5-3.6-0.4-5.1,0.3-6.4c0.8-1.5,2.1-2.5,3.5-3.2c-0.1-0.5,0-1,0.2-1.5c0.8-2.1,3.1-1.8,4.3-1.7c0.6,0.1,1.4,0.2,2.2,0.1
		c1.3-0.1,2-0.4,3-1c1-0.6,2.3-1.2,4.1-1.6c3.7-0.8,6.8,0.3,7.8,0.6c5.3,1.8,8,5.9,11,10.7c0.6,1,2.7,4.5,4.1,9.3
		c1,3.5,0.9,5,0.6,6.2c-0.6,2.4-2,3.7-5.7,6.7c-3.8,3.1-5.7,4.7-7.4,5.6C87,41.6,84.6,43,81.4,43L81.4,43C81.4,43,81.4,43,81.4,43z"
		/>
</g>
<path class="st1" d="M286.7,663.5c0,0.7,0.5,1.2,1.2,1.2h247.3c0.7,0,1.2-0.5,1.2-1.2c0-0.3-0.1-0.6-0.3-0.8h-89.7
	c-1.9,0-3.8-0.1-5.6-0.4H287.9C287.2,662.3,286.7,662.8,286.7,663.5z"/>
<g>
	<g>
		<path class="st2" d="M167.2,452.9h137.7c23.3,0,42.2,18.9,42.2,42.2v110.4c0,23.3-18.9,42.2-42.2,42.2H167.2
			c-23.3,0-42.2-18.9-42.2-42.2V495.2C125,471.9,143.9,452.9,167.2,452.9z"/>
		<path class="st1" d="M124,605.6V495.2c0-23.8,19.4-43.2,43.2-43.2h137.7c23.8,0,43.2,19.4,43.2,43.2v110.4
			c0,23.8-19.4,43.2-43.2,43.2H167.2C143.4,648.8,124,629.4,124,605.6z M167.2,453.9c-22.7,0-41.2,18.5-41.2,41.2v110.4
			c0,22.7,18.5,41.2,41.2,41.2h137.7c22.7,0,41.2-18.5,41.2-41.2V495.2c0-22.7-18.5-41.2-41.2-41.2H167.2z"/>
	</g>
</g>
<g>
	<g>
		<path class="st2" d="M43.2,206.9h137.7c23.3,0,42.2,18.9,42.2,42.2v110.4c0,23.3-18.9,42.2-42.2,42.2H43.2
			C19.9,401.8,1,382.9,1,359.6V249.2C1,225.9,19.9,206.9,43.2,206.9L43.2,206.9z"/>
		<path class="st1" d="M0,359.6V249.2c0-23.8,19.4-43.2,43.2-43.2h137.7c23.8,0,43.2,19.4,43.2,43.2v110.4
			c0,23.8-19.4,43.2-43.2,43.2H43.2C19.4,402.8,0,383.4,0,359.6z M43.2,207.9C20.5,207.9,2,226.4,2,249.2v110.4
			c0,22.7,18.5,41.2,41.2,41.2h137.7c22.7,0,41.2-18.5,41.2-41.2V249.2c0-22.7-18.5-41.2-41.2-41.2L43.2,207.9L43.2,207.9z"/>
	</g>
</g>
<path class="st3" d="M428.4,280.5c-1-1-9-22-9-22l-19-1l-8.7,20.5L428.4,280.5z"/>
<circle class="st3" cx="401.5" cy="241.6" r="25.6"/>
<polygon class="st4" points="449.9,419 458.9,449 434.9,623 418.7,623 409.9,492 399.9,537 450.9,602 437.9,617 364.4,545.5 
	365.9,435 371.9,418 "/>
<path class="st4" d="M422.9,262.6l-2,0.1c0,0-1.8-15.9-2.8-16.9s-2.9,1.1-2.9,1.1s-8.2-4.6-8.5-9.6s-0.4-9-3.4-8.8s-19.8,5-23.8,5.2
	s-10.3-6.5-3.6-12.8s12.6-8.6,13.5-9.7s7.2-5.4,12.7-1.6s12.5,3.4,12.5,3.4s13.1,2.4,11.4,8.4c-1.7,6.1,4.9,17.8,2.2,23.9
	S422.9,262.6,422.9,262.6L422.9,262.6z"/>
<path class="st4" d="M417.9,620l18,2l2,33c0,0-1,16-18,14s-12-18-12-18L417.9,620z"/>
<path class="st4" d="M441.4,596.5c0,0,13-6,15,1l4,14c0,0,0,14,1,15s20,27,3,41c0,0-9,1-14-13s-20-28-20-28s-2.9-7,2-6.5
	s12-11.5,10-15.5S441.4,596.5,441.4,596.5z"/>
<path class="st3" d="M276.3,465.8c-4.7-2-5.9-9.5-2.8-16.8c1.2-2.9,3.1-5.5,5.5-7.6l3.6-8.2l-0.1-0.1l10.3-41.2
	c2.4-9.6,9-17.7,18.1-21.5c5.4-2.3,10.5-2.7,12,2.8c2.5,9.1-13.6,38.6-23.4,55.1l-7.6,18.6c0.2,3.2-0.4,6.3-1.6,9.2
	C287.2,463.5,281,467.8,276.3,465.8L276.3,465.8z"/>
<path class="st0" d="M392.4,274.5l33,1l32,14l-5,83c0,0,6,19,3,22s0,16.4-2,16.7s0,14.7,0,14.7s-28-9.5-52-3.5s-32-4-32-4
	s-6-24-6-29V287.2L392.4,274.5z"/>
<path class="st0" d="M368.9,287c0,0-14-4-21,6s-11,10-11,23c0,0-41,58-39,64l-9.5,15.5l24,13c0,0,8.5-8.5,8.5-16.5s24-30,24-30
	s21-27,22-37S368.9,287,368.9,287z"/>
<g>
	<g>
		<path class="st2" d="M492.2,470.9h137.7c23.3,0,42.2,18.9,42.2,42.2v110.4c0,23.3-18.9,42.2-42.2,42.2H492.2
			c-23.3,0-42.2-18.9-42.2-42.2V513.2C450,489.9,468.9,470.9,492.2,470.9z"/>
		<path class="st1" d="M448,622.6V512.2c0-23.8,19.4-43.2,43.2-43.2h137.7c23.8,0,43.2,19.4,43.2,43.2v110.4
			c0,23.8-19.4,43.2-43.2,43.2H491.2C467.4,665.8,448,646.4,448,622.6z M491.2,470.9c-22.7,0-41.2,18.5-41.2,41.2v110.4
			c0,22.7,18.5,41.2,41.2,41.2h137.7c22.7,0,41.2-18.5,41.2-41.2V512.2c0-22.7-18.5-41.2-41.2-41.2H491.2z"/>
	</g>
</g>
<g>
	<path class="st3" d="M477.5,488.5c5-0.3,8.8-6.9,8.4-14.8c-0.1-3.2-1-6.3-2.6-9l-0.6-9l0.2,0l4.3-42.2c1-9.8-2.5-19.7-9.7-26.4
		c-4.3-4-9-6.1-12.3-1.5c-5.4,7.8-0.3,40.9,3.3,59.8l0.8,20c-1.3,2.9-1.8,6.1-1.6,9.2C468,482.5,472.5,488.7,477.5,488.5
		L477.5,488.5z"/>
	<path class="st0" d="M451.1,288.8c0,0,14.5,1,17.7,12.8s7,13.1,2.5,25.4c0,0,18.9,68.5,15,73.4l3.7,17.8l-27,4.1
		c0,0-5.1-10.9-2.4-18.4s-12.4-36.4-12.4-36.4s-10.6-32.5-8.1-42.3S451.1,288.8,451.1,288.8L451.1,288.8z"/>
</g>
<path class="st5" d="M265.6,548.3c0.2,16.6,14.5,22.1,14.7,22.1c-0.1,0.4-2.3,7.9-7.6,15.6c-4.6,6.7-9.3,13.3-16.7,13.4
	c-7.3,0.1-9.7-4.3-18.1-4.3c-8.4,0-11,4.2-17.9,4.5c-7.2,0.3-12.7-7.2-17.3-13.8c-9.4-13.6-16.6-38.4-6.9-55.1
	c4.8-8.3,13.3-13.6,22.6-13.7c7.1-0.1,13.7,4.8,18.1,4.8c4.3,0,12.4-5.9,20.9-5c3.6,0.1,13.6,1.4,20,10.9
	C276.9,527.8,265.5,534.5,265.6,548.3 M251.9,507.7c3.8-4.6,6.4-11.1,5.7-17.5c-5.5,0.2-12.2,3.7-16.1,8.3
	c-3.5,4.1-6.6,10.6-5.8,16.9C241.8,515.9,248.1,512.3,251.9,507.7"/>
<path class="st5" d="M527.6,580.7c0,4.3-3,7.9-6.7,7.9s-6.7-3.5-6.7-7.9v-25.8c0-4.3,3-7.9,6.7-7.9s6.7,3.5,6.7,7.9V580.7z
	 M605.9,580.7c0,4.3-3,7.9-6.7,7.9s-6.7-3.5-6.7-7.9v-25.8c0-4.3,3-7.9,6.7-7.9s6.7,3.5,6.7,7.9V580.7z M574.7,522.1l4.3-7.7
	c0.4-0.6,0.2-1.4-0.2-1.6c-0.5-0.3-1.2,0-1.5,0.7l-4.4,7.9c-4.1-1.6-8.5-2.4-13-2.4c-4.7,0-9.1,0.9-13.1,2.5l-4.4-7.9
	c-0.4-0.6-1-0.9-1.5-0.7c-0.5,0.3-0.6,1-0.2,1.6l4.3,7.8c-9,4.2-15.1,12.2-15.1,21.3c0,0.9,0.1,1.8,0.2,2.7h59.6
	c0.1-0.9,0.2-1.8,0.2-2.7C589.9,534.2,583.8,526.3,574.7,522.1L574.7,522.1z M546.3,535.6c-1.4,0-2.6-1.2-2.6-2.6
	c0-1.4,1.2-2.6,2.6-2.6c0,0,0,0,0,0c1.4,0,2.6,1.2,2.6,2.6C548.9,534.4,547.8,535.6,546.3,535.6z M573.7,535.6
	c-1.4,0-2.6-1.2-2.6-2.6c0-1.4,1.2-2.6,2.6-2.6c0,0,0,0,0,0c1.4,0,2.6,1.2,2.6,2.6C576.3,534.4,575.1,535.6,573.7,535.6z
	 M529.9,548.7v44h0c0.3,3.7,3.7,6.7,7.9,6.7H582c4.1,0,7.6-3,7.9-6.7h0v-44H529.9L529.9,548.7z M555.6,599.1v13.6
	c0,4.3-3,7.9-6.7,7.9c-3.7,0-6.7-3.5-6.7-7.9v-13.6L555.6,599.1z M578,599.1v13.6c0,4.3-3,7.9-6.7,7.9s-6.7-3.5-6.7-7.9v-13.6H578z"
	/>
<path class="st6" d="M125.9,348.8c-24.4,8.2-50.8-4.9-59-29.3s4.9-50.8,29.3-59c24.4-8.2,50.8,4.9,59,29.3c1.6,4.8,2.4,9.8,2.4,14.8
	c-0.2,3.8-0.6,7.5-1.4,11.2"/>
<path class="st6" d="M122,340.2c-3.4,3.8-7,7.3-11,10.5"/>
<path class="st6" d="M111,257.5c12.6,11,20.4,26.5,21.7,43.1c0.3,3,0.3,6.1,0.2,9.1"/>
<path class="st6" d="M111,257.5c-13.8,12-21.8,29.4-21.9,47.7c0,30.4,13.6,39.4,21.9,45.4"/>
<line class="st6" x1="70.5" y1="281.7" x2="151.8" y2="281.7"/>
<line class="st6" x1="111" y1="257.5" x2="111" y2="350.7"/>
<line class="st6" x1="71.7" y1="329.6" x2="120.5" y2="329.6"/>
<line class="st6" x1="64.4" y1="305.2" x2="157.6" y2="304.1"/>
<path class="st6" d="M151.4,351.2l8.3-8.3l-15-15l8.5-5.5c0.3-0.2,0.5-0.6,0.3-1c-0.1-0.2-0.3-0.3-0.5-0.3l-28.7-6.7
	c-0.4-0.1-0.8,0.2-0.9,0.6c0,0.1,0,0.2,0,0.3l6.2,29.2c0.1,0.4,0.5,0.6,0.9,0.6c0.2,0,0.4-0.2,0.5-0.3l5.4-8.5L151.4,351.2z"/>
</svg>
