<?xml version="1.0" encoding="UTF-8"?>
<svg id="Layer_1" data-name="Layer 1" xmlns="http://www.w3.org/2000/svg" viewBox="0 0 40 40">
  <defs>
    <style>
      .cls-1 {
        fill: #f4f4f4;
      }

      .cls-2 {
        fill: #00c4f4;
      }
    </style>
  </defs>
  <path class="cls-2" d="M33.72,36.58c4.02-4.02,6.28-9.47,6.28-15.15s-2.26-11.13-6.28-15.15C29.71,2.26,24.25,0,18.57,0S7.44,2.26,3.42,6.28l7.07,7.07c1.12,1.12,2.92,1.06,4.34,.37,1.16-.56,2.43-.86,3.74-.86,2.27,0,4.45,.9,6.06,2.51,1.61,1.61,2.51,3.79,2.51,6.06,0,1.31-.3,2.59-.86,3.74-.69,1.42-.74,3.22,.37,4.34l7.07,7.07Z"/>
  <path class="cls-1" d="M30,40h-10.49c-1.52,0-2.97-.6-4.04-1.67L1.67,24.53c-1.07-1.07-1.67-2.53-1.67-4.04V10l30,30Z"/>
  <path class="cls-1" d="M10.71,40H4.29c-2.37,0-4.29-1.92-4.29-4.29v-6.43l10.71,10.71Z"/>
</svg>