<?xml version="1.0" encoding="utf-8"?>
<!-- Generator: Adobe Illustrator 26.5.0, SVG Export Plug-In . SVG Version: 6.00 Build 0)  -->
<svg version="1.1" id="Layer_1" xmlns="http://www.w3.org/2000/svg" xmlns:xlink="http://www.w3.org/1999/xlink" x="0px" y="0px"
	 viewBox="0 0 40 40" style="enable-background:new 0 0 40 40;" xml:space="preserve">
<style type="text/css">
	.st0{fill:#ADACAC;}
	.st1{fill:#F4F4F4;}
</style>
<path class="st0" d="M33.7,36.6c4-4,6.3-9.5,6.3-15.1s-2.3-11.1-6.3-15.1s-9.5-6.3-15.2-6.3S7.4,2.3,3.4,6.3l7.1,7.1
	c1.1,1.1,2.9,1.1,4.3,0.4c1.2-0.6,2.4-0.9,3.7-0.9c2.3,0,4.5,0.9,6.1,2.5s2.5,3.8,2.5,6.1c0,1.3-0.3,2.6-0.9,3.7
	c-0.7,1.4-0.7,3.2,0.4,4.3L33.7,36.6z"/>
<path class="st1" d="M30,40H19.5c-1.5,0-3-0.6-4-1.7L1.7,24.5c-1.1-1-1.7-2.5-1.7-4V10L30,40z"/>
<path class="st1" d="M10.7,40H4.3C1.9,40,0,38.1,0,35.7v-6.4L10.7,40L10.7,40z"/>
</svg>
